<svg width="18px" height="18px" viewBox="0 0 18 18" version="1.1" xmlns="http://www.w3.org/2000/svg" xmlns:xlink="http://www.w3.org/1999/xlink">
    <g id="Core:-Symbols" stroke="none" stroke-width="1" fill="none" fill-rule="evenodd">
        <g id="Footer" transform="translate(-1289.000000, -83.000000)" fill="#FFFFFF" fill-rule="nonzero">
            <g id="Group" transform="translate(1230.000000, 83.000000)">
                <g id="icon-instagram" transform="translate(59.000000, 0.000000)">
                    <g id="Group-4">
                        <path d="M12.55,0 L5.46,0 C2.45,0 -8.18900503e-13,2.44 -8.18900503e-13,5.44 L-8.18900503e-13,12.56 C-8.18900503e-13,15.56 2.45,18 5.46,18 L12.54,18 C15.56,18 18.0000305,15.56 18.0000305,12.56 L18.0000305,5.44 C18.01,2.44 15.56,0 12.55,0 Z M16.5,13 C16.5,14.93 14.93,16.5 13,16.5 L5,16.5 C3.07,16.5 1.5,14.93 1.5,13 L1.5,5 C1.5,3.07 3.07,1.5 5,1.5 L13,1.5 C14.93,1.5 16.5,3.07 16.5,5 L16.5,13 Z" id="Shape"></path>
                        <circle id="Oval" cx="13.87" cy="4.26" r="1.09"></circle>
                        <path d="M9.03,4.45 C6.48,4.45 4.4,6.51 4.4,9.05 C4.4,11.6 6.47,13.66 9.03,13.66 C11.59,13.66 13.66,11.599 13.66,9.05 C13.65,6.51 11.58,4.45 9.03,4.45 L9.03,4.45 L9.03,4.45 Z M9.08,12 C7.42,12 6.08,10.66 6.08,9.01 C6.08,7.36 7.42,6.02 9.08,6.02 C10.74,6.02 12.08,7.36 12.08,9.01 C12.08,10.66 10.74,12 9.08,12 L9.08,12 L9.08,12 Z" id="Shape"></path>
                    </g>
                </g>
            </g>
        </g>
    </g>
</svg>
