<?xml version="1.0" encoding="UTF-8"?>
<svg width="5px" height="10px" viewBox="0 0 5 10" version="1.1" xmlns="http://www.w3.org/2000/svg" xmlns:xlink="http://www.w3.org/1999/xlink">
    <!-- Generator: Sketch 60 (88103) - https://sketch.com -->
    <title>Fill 1</title>
    <desc>Created with Sketch.</desc>
    <g id="Design" stroke="none" stroke-width="1" fill="none" fill-rule="evenodd">
        <g id="Home" transform="translate(-513.000000, -1623.000000)" fill="#814EBF">
            <g id="Group-10" transform="translate(357.000000, 1617.000000)">
                <path d="M160.919216,10.7909266 L156.474718,6.08501927 C156.422634,6.02987192 156.353183,6 156.277238,6 C156.201293,6 156.134003,6.02987192 156.079758,6.08731693 C156.027674,6.14246429 155.999461,6.21599997 155.999461,6.29641216 C155.999461,6.37683494 156.027674,6.44807179 156.079758,6.50550739 L160.32892,11 L156.081869,15.4990845 C156.029785,15.5542319 156.001572,15.6277676 156.001572,15.7058856 C156.001572,15.7840036 156.029785,15.8575451 156.084039,15.9149807 C156.136123,15.9701281 156.205574,16 156.281519,16 C156.357474,16 156.424754,15.9701281 156.478999,15.9149807 L160.923497,11.2090735 C161.025495,11.0941835 161.025495,10.905766 160.919157,10.7908713 L160.919216,10.7909266 Z" id="Fill-1"></path>
            </g>
        </g>
    </g>
</svg>