<?xml version="1.0" encoding="UTF-8"?>
<svg width="18px" height="15px" viewBox="0 0 18 15" version="1.1" xmlns="http://www.w3.org/2000/svg" xmlns:xlink="http://www.w3.org/1999/xlink">
    <!-- Generator: Sketch 60 (88103) - https://sketch.com -->
    <title>icon-twitter</title>
    <desc>Created with Sketch.</desc>
    <g id="Core:-Symbols" stroke="none" stroke-width="1" fill="none" fill-rule="evenodd">
        <g id="Footer" transform="translate(-1255.000000, -85.000000)" fill="#FFFFFF" fill-rule="nonzero">
            <g id="Group" transform="translate(1230.000000, 83.000000)">
                <g id="icon-twitter" transform="translate(25.000000, 2.000000)">
                    <path d="M18,1.74 C17.339,2.029 16.626,2.229 15.881,2.32 C16.644,1.86 17.227,1.139 17.503,0.28 C16.79,0.7 16.001,1.009 15.159,1.17 C14.485,0.45 13.526,0 12.464,0 C10.423,0 8.771,1.66 8.771,3.7 C8.771,3.99 8.804,4.269 8.868,4.539 C5.795,4.38 3.076,2.919 1.254,0.679 C0.936,1.219 0.754,1.86 0.754,2.539 C0.754,3.82 1.405,4.95 2.397,5.61 C1.79,5.589 1.22,5.429 0.723,5.149 L0.723,5.189 C0.723,6.978 1.997,8.478 3.686,8.82 C3.376,8.899 3.049,8.939 2.713,8.939 C2.475,8.939 2.245,8.919 2.018,8.88 C2.49,10.349 3.852,11.419 5.469,11.449 C4.205,12.429 2.612,13.019 0.882,13.019 C0.583,13.019 0.29,13.009 0,12.969 C1.635,14.019 3.576,14.629 5.662,14.629 C12.454,14.629 16.17,9 16.17,4.129 C16.17,3.969 16.166,3.809 16.157,3.649 C16.879,3.129 17.504,2.478 18,1.74" id="Shape"></path>
                </g>
            </g>
        </g>
    </g>
</svg>