<svg width="18px" height="14px" viewBox="0 0 18 14" version="1.1" xmlns="http://www.w3.org/2000/svg" xmlns:xlink="http://www.w3.org/1999/xlink">
    <g id="Core:-Symbols" stroke="none" stroke-width="1" fill="none" fill-rule="evenodd">
        <g id="Footer" transform="translate(-1323.000000, -85.000000)" fill="#FFFFFF" fill-rule="nonzero">
            <g id="Group" transform="translate(1230.000000, 83.000000)">
                <g id="icon-youtube" transform="translate(93.000000, 2.000000)">
                    <path d="M14,0.1 C15,0.2 16.3,0.1 17,0.9 C17.8,1.7 17.9,3 17.9,4 C18,5.2 18,6.9 18,8 C17.9,9.1 18,10.4 17.5,11.4 C17,12.5 16.1,12.9 15,13 C13.8,13.1 6.4,13.1 4,13 C2.9,12.9 1.6,12.9 0.8,12 C0.1,11.2 0.1,10 -2.22044605e-16,9 C-2.22044605e-16,7.8 -2.22044605e-16,6.1 -2.22044605e-16,4.9 C-2.22044605e-16,3.8 -2.22044605e-16,2.5 0.5,1.5 C1,0.5 2,0.3 3.1,0.2 C4.3,0.1 11.6,-2.22044605e-16 14,0.1 Z M7,3.5 L7,9.5 L12.5,6.5 L7,3.5 Z" id="Shape"></path>
                </g>
            </g>
        </g>
    </g>
</svg>
